<?xml version="1.0" encoding="utf-8"?>
<!-- Generator: Adobe Illustrator 25.0.1, SVG Export Plug-In . SVG Version: 6.00 Build 0)  -->
<svg version="1.1" id="Capa_1" xmlns="http://www.w3.org/2000/svg" xmlns:xlink="http://www.w3.org/1999/xlink" x="0px" y="0px"
	 viewBox="0 0 512 512" style="enable-background:new 0 0 512 512;" xml:space="preserve">
<style type="text/css">
	.st0{fill:#44DEFD;}
</style>
<g>
	<g>
		<path class="st0" d="M430.9,256c6.1-6.4,11.7-12.8,16.9-19.2c35-43,45.6-81.7,29.9-108.8s-54.4-37.3-109.2-28.5
			c-8.1,1.3-16.5,3-25.1,5.1c-2.5-8.5-5.2-16.6-8.2-24.2C315.5,28.5,287.3,0,256,0s-59.5,28.5-79.3,80.3c-2.9,7.7-5.7,15.8-8.2,24.2
			c-8.6-2.1-16.9-3.8-25.1-5.1C88.7,90.7,50,100.9,34.3,128c-15.7,27.1-5,65.8,29.9,108.8c5.2,6.4,10.8,12.8,16.9,19.2
			c-6.1,6.4-11.7,12.8-16.9,19.2c-35,43-45.6,81.7-29.9,108.8c12,20.8,37.5,31.6,73.4,31.6c11,0,23-1,35.8-3.1
			c8.1-1.3,16.5-3,25.1-5.1c2.5,8.5,5.2,16.6,8.2,24.2c19.8,51.8,47.9,80.3,79.3,80.3s59.5-28.5,79.3-80.3
			c2.9-7.7,5.7-15.8,8.2-24.2c8.6,2.1,16.9,3.8,25.1,5.1c12.9,2.1,24.8,3.1,35.8,3.1c35.9,0,61.4-10.8,73.4-31.6
			c15.7-27.1,5-65.8-29.9-108.8C442.6,268.8,436.9,262.4,430.9,256z M60.7,143.2c8.6-15,37.8-20.1,78-13.6
			c7.2,1.2,14.7,2.7,22.4,4.5c-4.2,19.4-7.4,40.1-9.4,61.6c-17.6,12.6-34,25.7-48.7,39c-5.4-5.7-10.4-11.4-15.1-17.1
			C62.2,186,52,158.2,60.7,143.2z M149.1,276.4c-8.5-6.7-16.7-13.5-24.3-20.4c7.6-6.9,15.7-13.7,24.3-20.4
			c-0.2,6.7-0.3,13.5-0.3,20.4C148.8,262.8,148.9,269.6,149.1,276.4z M138.7,382.4c-40.2,6.4-69.3,1.3-78-13.6
			c-8.6-15,1.5-42.8,27.2-74.4c4.6-5.7,9.7-11.4,15.1-17.1c14.7,13.3,31,26.4,48.7,39c2.1,21.6,5.2,42.3,9.4,61.6
			C153.4,379.7,145.9,381.2,138.7,382.4z M327.1,173.6c-5.7-3.6-11.6-7.1-17.5-10.5c-5.9-3.4-11.9-6.7-17.8-9.9
			c10.1-4,20-7.7,29.8-10.8C323.7,152.4,325.6,162.9,327.1,173.6z M205.2,91.2c14.5-38,33.5-60.7,50.8-60.7s36.3,22.7,50.8,60.7
			c2.6,6.9,5.1,14.1,7.3,21.6c-18.9,6-38.4,13.7-58.1,22.7c-19.7-9-39.2-16.6-58.1-22.7C200.1,105.3,202.6,98,205.2,91.2z
			 M190.4,142.4c9.8,3.2,19.7,6.8,29.8,10.8c-5.9,3.2-11.9,6.5-17.8,9.9s-11.8,6.9-17.5,10.5C186.4,162.9,188.3,152.4,190.4,142.4z
			 M184.9,338.4c5.7,3.6,11.6,7.1,17.5,10.5s11.9,6.7,17.8,9.9c-10.1,4-20,7.7-29.8,10.8C188.3,359.6,186.4,349.1,184.9,338.4z
			 M306.8,420.8c-14.5,38-33.5,60.7-50.8,60.7s-36.3-22.7-50.8-60.7c-2.6-6.9-5.1-14.1-7.3-21.6c18.9-6,38.4-13.7,58.1-22.7
			c19.7,9,39.2,16.6,58.1,22.7C311.9,406.7,309.4,414,306.8,420.8z M321.6,369.6c-9.8-3.2-19.7-6.8-29.8-10.8
			c5.9-3.2,11.9-6.5,17.8-9.9c5.9-3.4,11.8-6.9,17.5-10.5C325.6,349.1,323.7,359.6,321.6,369.6z M331.2,299.4
			c-11.8,8-24.1,15.7-36.9,23c-12.8,7.4-25.6,14.2-38.4,20.4c-12.8-6.2-25.6-13-38.4-20.4s-25.1-15.1-36.9-23
			c-1-14.2-1.5-28.7-1.5-43.4s0.5-29.3,1.5-43.4c11.8-8,24.1-15.7,36.9-23c12.8-7.4,25.6-14.2,38.4-20.4c12.8,6.2,25.6,13,38.4,20.4
			c12.8,7.4,25.1,15.1,36.9,23c1,14.2,1.5,28.7,1.5,43.4S332.2,285.3,331.2,299.4z M373.3,129.6c40.2-6.4,69.3-1.3,78,13.6
			c8.6,15-1.5,42.8-27.2,74.4c-4.6,5.7-9.7,11.4-15.1,17.1c-14.7-13.3-31-26.4-48.7-39c-2.1-21.6-5.2-42.3-9.4-61.6
			C358.6,132.3,366.1,130.8,373.3,129.6z M362.9,235.6c8.5,6.7,16.7,13.5,24.3,20.4c-7.6,6.9-15.7,13.7-24.3,20.4
			c0.2-6.7,0.3-13.5,0.3-20.4S363.1,242.4,362.9,235.6z M451.3,368.8c-8.6,15-37.8,20.1-78,13.6c-7.2-1.2-14.7-2.7-22.4-4.5
			c4.2-19.4,7.4-40.1,9.4-61.6c17.6-12.6,34-25.7,48.7-39c5.4,5.7,10.4,11.4,15.1,17.1C449.8,326,460,353.8,451.3,368.8z"/>
	</g>
</g>
<g>
	<g>
		<path class="st0" d="M256,205.2c-28,0-50.8,22.8-50.8,50.8s22.8,50.8,50.8,50.8s50.8-22.8,50.8-50.8S284,205.2,256,205.2z"/>
	</g>
</g>
</svg>
