<svg xmlns="http://www.w3.org/2000/svg" viewBox="0 0 1024 1024"><defs><style>.cls-1{fill:#f4dc1e;}.cls-2{fill:#938512;}.cls-3{fill:#9d8e13;}.cls-4{fill:#877a11;}</style></defs><g id="Capa_2" data-name="Capa 2"><g id="Capa_1-2" data-name="Capa 1"><path class="cls-1" d="M512,1023.91q-253.71,0-507.41.09c-3.75,0-4.59-.84-4.59-4.59Q.15,512,0,4.59C0,.84.84,0,4.59,0Q512,.15,1019.41,0c3.75,0,4.59.84,4.59,4.59q-.15,507.41,0,1014.82c0,3.75-.84,4.59-4.59,4.59Q765.7,1023.84,512,1023.91Z"/><path d="M944.18,819.08c-1.86,27.08-10,51.9-27.57,72.93a125.32,125.32,0,0,1-34.28,28.4C861,932.59,838,939.06,813.78,942.26a222.9,222.9,0,0,1-43.24,1.61c-38.29-2.42-74.41-12.19-106.28-34.66a170.19,170.19,0,0,1-53-60.25c-1.67-3.16-1-4.29,2-6q35.2-20.31,70.16-41.08c3.93-2.34,5.57-.92,7.45,2.35a116.06,116.06,0,0,0,20.58,26.3c15,14.23,32.53,23.42,53.27,26.4,20.21,2.9,39.85,1.76,58.15-7.83,16.1-8.43,25.68-21.58,25-40.5-.57-15-7.47-26.66-19.56-35.38-17.75-12.78-38.1-20.44-57.91-29.1-25.68-11.23-51.56-21.92-74.5-38.48-29.06-21-48.95-47.81-55-83.87a122.76,122.76,0,0,1-2-18.61,197.53,197.53,0,0,1,0-20.36c2.46-50.48,35.12-92.06,83.36-108.89,27.91-9.74,56.48-11.16,85.63-7.35,22.79,3,43.85,10,62.87,23.09,18.55,12.81,32.38,29.7,43.77,48.87,1.33,2.25,1.83,3.31-1.07,5.15-23,14.58-45.79,29.42-68.57,44.31-2.74,1.79-4,1.49-5.6-1.35C833,576,826,565.93,815.51,559.23c-19.66-12.6-40.56-14.48-61.65-4.11-11.6,5.69-18.52,15.62-20,28.85a31.55,31.55,0,0,0-.07,11c.52,18.21,12.27,28.67,26.23,37.26,19.11,11.77,40.34,19.16,60.72,28.26,25.16,11.25,50.12,22.85,71.93,39.9,20.42,16,36.51,35.38,44.59,60.68,4,12.64,5.85,25.57,6.91,38.68A169.87,169.87,0,0,1,944.18,819.08Z"/><path d="M557.72,646.15q0,74.75,0,149.47c0,21.91-2.16,43.52-9.43,64.4-12.75,36.68-37.21,62.05-74.1,74-44.63,14.52-89.27,13.75-132.59-5.29-32.42-14.26-55-39-70.64-70.47-1.11-2.22-.56-3.08,1.35-4.24q36.56-22,73-44.2c2.59-1.58,3.4-.5,4.5,1.48a202.44,202.44,0,0,0,15,23.53c18.59,24.76,45.93,27.18,69.9,18.85,16.63-5.79,22.48-20.11,25.24-36.11,1.48-8.58,1.45-17.25,1.45-25.91q0-157.71-.11-315.42c0-5,1.18-6.32,6.26-6.27,28.16.27,56.32.23,84.48,0,4.43,0,5.83.93,5.82,5.66C557.66,532.52,557.72,589.34,557.72,646.15Z"/><path class="cls-2" d="M638.67,582.8q0,10.17,0,20.36A57.09,57.09,0,0,1,638.67,582.8Z"/><path class="cls-3" d="M944.18,819.08l0-19.28A51.87,51.87,0,0,1,944.18,819.08Z"/><path class="cls-4" d="M733.83,595a18.43,18.43,0,0,1,.07-11C733.87,587.65,733.85,591.34,733.83,595Z"/></g></g></svg>